<?xml version="1.0" encoding="UTF-8"?>
<svg version="1.1" xmlns="http://www.w3.org/2000/svg" width="500" height="500">
<path d="M0 0 C3.75212276 2.01502889 5.63644095 3.45466142 8 7 C8.1171875 9.37890625 8.1171875 9.37890625 7 12 C4.57497877 13.98813121 1.86383785 15.42514318 -0.875 16.9375 C-16.45292244 25.99937146 -30.44727975 37.15659528 -44.31494141 48.61474609 C-46.60614185 50.49829743 -48.92640369 52.34413822 -51.25 54.1875 C-52.00539063 54.79980469 -52.76078125 55.41210938 -53.5390625 56.04296875 C-55.42818239 57.54526885 -57.33381727 58.99149197 -59.2734375 60.42578125 C-60.39099962 61.2833662 -61.50819192 62.14143332 -62.625 63 C-63.64851563 63.763125 -64.67203125 64.52625 -65.7265625 65.3125 C-68.27321214 68.32297243 -68.57188477 69.99780852 -68.29199219 73.89892578 C-67.81851178 77.3059261 -67.17720398 80.60790206 -66.3125 83.9375 C-66.13460937 84.63117676 -65.95671875 85.32485352 -65.7734375 86.03955078 C-63.30789078 95.3802815 -63.30789078 95.3802815 -57.01171875 102.2265625 C-53.88183411 103.42989679 -52.2213306 102.97247716 -49 102 C-38.06566566 96.30458132 -28.76454994 86.40439127 -21 77 C-19.85609123 75.66501516 -18.71034262 74.33160397 -17.5625 73 C-16.716875 72.01 -15.87125 71.02 -15 70 C-12.625 70.3125 -12.625 70.3125 -10 71 C-8 74 -8 74 -8.0546875 76.32421875 C-9.31370022 79.88795311 -11.53153657 82.16482823 -14.125 84.8125 C-15.14401179 85.88467339 -16.16224331 86.95758892 -17.1796875 88.03125 C-17.67178711 88.54558594 -18.16388672 89.05992187 -18.67089844 89.58984375 C-20.26251092 91.27852003 -21.7600229 93.03388859 -23.25 94.8125 C-46.31532929 121.20455948 -46.31532929 121.20455948 -61.125 123.30078125 C-67.13346664 123.33833417 -70.92613549 121.77037214 -75.5625 117.8125 C-82.00785656 110.37555012 -84.92802208 102.29138584 -88 93 C-88.37769531 91.86820312 -88.75539063 90.73640625 -89.14453125 89.5703125 C-89.42683594 88.72210938 -89.70914063 87.87390625 -90 87 C-111.74768509 106.37739351 -111.74768509 106.37739351 -127.625 130.5 C-129 133 -129 133 -131.1875 133.875 C-131.785625 133.91625 -132.38375 133.9575 -133 134 C-136.46466694 129.6315069 -137.48746827 126.03053581 -137.3984375 120.51953125 C-135.54356373 108.7901824 -123.17453174 98.17943554 -115.375 89.75 C-114.79153809 89.10748291 -114.20807617 88.46496582 -113.60693359 87.80297852 C-110.50573775 84.446208 -107.39135762 81.44425627 -103.765625 78.65625 C-96.1967423 72.64384052 -96.1967423 72.64384052 -92.38330078 64.02783203 C-91.84488953 57.09875822 -92.34792337 50.23501233 -92.83984375 43.31591797 C-93.07511665 38.4447648 -92.71349422 33.71572523 -92.1875 28.875 C-92.11619873 28.1013208 -92.04489746 27.3276416 -91.97143555 26.53051758 C-91.1665132 19.09538377 -89.51068421 11.35760965 -84 6 C-79.60078327 2.76366849 -75.53954477 1.20903943 -70 1 C-67.5625 1.9375 -67.5625 1.9375 -66 3 C-66.56974358 6.60837604 -67.24482936 10.17702847 -68 13.75 C-70.19617446 24.82920846 -70.11028903 35.75051893 -70 47 C-69.11699219 46.23816406 -68.23398437 45.47632813 -67.32421875 44.69140625 C-59.96660326 38.35556724 -52.57261992 32.07898592 -45 26 C-44.20408447 25.36046387 -44.20408447 25.36046387 -43.39208984 24.70800781 C-10.60352691 -1.56445479 -10.60352691 -1.56445479 0 0 Z " fill="#000000" transform="translate(447,200)"/>
<path d="M0 0 C1.00476883 -0.00953201 2.00953766 -0.01906403 3.04475403 -0.02888489 C4.13430893 -0.02797348 5.22386383 -0.02706207 6.34643555 -0.02612305 C8.02240059 -0.03255074 8.02240059 -0.03255074 9.73222351 -0.03910828 C12.10028403 -0.04486038 14.46836223 -0.0453454 16.83642578 -0.04101562 C20.45790907 -0.03786377 24.07856947 -0.06127661 27.69995117 -0.08666992 C29.99877826 -0.08894364 32.29760756 -0.08964608 34.59643555 -0.08862305 C35.67991776 -0.09783279 36.76339996 -0.10704254 37.87971497 -0.11653137 C47.43504177 -0.05784803 47.43504177 -0.05784803 51.1706543 3.2746582 C52.50343202 5.73783959 53.52073448 7.92942586 54.4831543 10.5246582 C54.74676758 11.16790039 55.01038086 11.81114258 55.28198242 12.47387695 C56.97628849 16.84826716 57.52641123 20.5231927 57.1706543 25.2746582 C56.1706543 26.2746582 56.1706543 26.2746582 53.87768555 26.6340332 C50.08791057 26.13091733 49.19449999 24.48032771 46.8581543 21.5246582 C42.12461869 15.93766375 38.10919696 13.58750576 31.1706543 11.2746582 C28.5306543 11.2746582 25.8906543 11.2746582 23.1706543 11.2746582 C22.8406543 18.2046582 22.5106543 25.1346582 22.1706543 32.2746582 C32.12824748 30.43294752 32.12824748 30.43294752 38.1706543 24.2746582 C40.9206543 23.7746582 40.9206543 23.7746582 43.1706543 24.2746582 C45.62052361 26.72452752 45.42696741 27.41173621 45.4362793 30.7746582 C45.44014648 32.1049707 45.44014648 32.1049707 45.4440918 33.4621582 C45.43635742 34.3902832 45.42862305 35.3184082 45.4206543 36.2746582 C45.43225586 37.6668457 45.43225586 37.6668457 45.4440918 39.0871582 C45.44151367 39.9740332 45.43893555 40.8609082 45.4362793 41.7746582 C45.43402344 42.5893457 45.43176758 43.4040332 45.42944336 44.2434082 C45.1706543 46.2746582 45.1706543 46.2746582 43.1706543 48.2746582 C40.9831543 48.7746582 40.9831543 48.7746582 38.1706543 48.2746582 C36.41836711 46.84291135 34.85583345 45.33468536 33.30737305 43.68481445 C30.06614649 41.54572344 27.01714966 41.58955264 23.1706543 41.2746582 C23.053465 44.62852581 22.98307846 47.9818597 22.9206543 51.3371582 C22.88713867 52.28010742 22.85362305 53.22305664 22.8190918 54.19458008 C22.75449203 58.82961319 22.75385988 62.18175186 25.3112793 66.14575195 C25.92487305 67.17829102 26.5384668 68.21083008 27.1706543 69.2746582 C26.28686523 71.97021484 26.28686523 71.97021484 25.1706543 74.2746582 C20.93483102 74.32404448 16.69915965 74.36037083 12.46313477 74.38452148 C11.02169883 74.39458783 9.58028334 74.40824201 8.13891602 74.42553711 C6.06871496 74.44975832 3.99878353 74.46113462 1.9284668 74.4699707 C0.05892334 74.48568115 0.05892334 74.48568115 -1.84838867 74.50170898 C-4.8293457 74.2746582 -4.8293457 74.2746582 -6.8293457 72.2746582 C-6.56384984 69.17720644 -5.70455538 67.02605732 -4.30566406 64.23925781 C-2.2914522 59.57320191 -2.37979619 55.04576386 -2.39575195 50.02856445 C-2.3905101 49.05862045 -2.38526825 48.08867645 -2.37986755 47.08934021 C-2.37346892 45.04622348 -2.37475626 43.00306982 -2.38330078 40.95996094 C-2.39181058 37.84999407 -2.36301879 34.74186589 -2.33129883 31.63208008 C-2.32968648 29.63924208 -2.330265 27.64640086 -2.33325195 25.65356445 C-2.32201797 24.73249405 -2.310784 23.81142365 -2.29920959 22.86244202 C-2.35728635 17.42844639 -3.16411161 13.64653467 -5.93516541 8.9405365 C-7.17956847 6.62218519 -7.28268713 4.84359293 -6.8293457 2.2746582 C-4.31409655 -0.24059095 -3.47889657 0.01808107 0 0 Z " fill="#000000" transform="translate(57.829345703125,171.725341796875)"/>
<path d="M0 0 C4.62041934 5.24480034 5.36850345 8.3501235 5.26953125 15.2421875 C4.81285967 19.91479816 2.896775 22.29826613 -0.51953125 25.36328125 C-6.78266706 29.98899594 -14.49940966 30.79873358 -22 32 C-21.67 33.32 -21.34 34.64 -21 36 C-16.8774182 37.00961187 -14.05636684 37.40090197 -10.3125 35.375 C-7.88283748 33.82541524 -6.74606389 32.66911356 -4.9375 30.3125 C-3 28 -3 28 0.25 27.1875 C1.1575 27.125625 2.065 27.06375 3 27 C4.625 28.5625 4.625 28.5625 6 31 C5.44334744 35.37369865 4.44919882 37.51793297 1.4375 40.75 C-6.74836393 46.68377218 -16.19342825 46.95037064 -26 46 C-32.52202881 44.35045964 -38.46899988 41.66309988 -42.37109375 36.015625 C-46.45174797 28.9409497 -46.8724194 22.04917614 -47 14 C-46.34 13.67 -45.68 13.34 -45 13 C-44.95875 12.175 -44.9175 11.35 -44.875 10.5 C-43.42138292 4.68553169 -39.15459936 0.03077334 -34.125 -3.20703125 C-23.4286313 -8.05382332 -9.23043719 -7.51314655 0 0 Z M-22 2 C-25.0960947 7.03115389 -25.8016521 11.23427144 -25 17 C-23.65253476 20.45346148 -23.65253476 20.45346148 -22 23 C-19.56282742 22.72965366 -19.56282742 22.72965366 -17 22 C-14.37556662 18.06334992 -13.62364351 14.57409255 -14.31640625 9.8359375 C-15.06737298 6.58371937 -15.60575847 4.39424153 -18 2 C-19.32 2 -20.64 2 -22 2 Z " fill="#010101" transform="translate(313,268)"/>
<path d="M0 0 C4.02872191 4.5588169 5.25040724 9.02152718 5 15 C3.36772219 20.76098051 0.89001145 23.61460746 -4 27 C-10.02314711 30.25249944 -16.2677942 31.06036536 -23 32 C-22.67 33.32 -22.34 34.64 -22 36 C-18.14600011 36.84787998 -15.64966235 37.2208852 -11.875 35.9375 C-9.37042645 34.24963521 -8.2518668 33.19036536 -6.5 30.875 C-4 28 -4 28 -0.875 26.9375 C2 27 2 27 3.9375 28 C5.72942179 31.37302924 5.09567084 33.40863446 4 37 C0.21080563 41.70646333 -5.06632804 44.90385602 -11 46 C-19.94726021 46.76206948 -29.24390763 47.19381185 -37 42 C-42.86671645 36.77743316 -46.4670224 31.8835622 -47.3359375 23.921875 C-47.43559384 15.82977985 -46.87493114 8.52714727 -41.421875 2.15625 C-30.01826452 -8.32274341 -12.48829147 -8.81526457 0 0 Z M-23.6875 3.4375 C-25.90750232 7.77179025 -26.55872104 12.311155 -25.5625 17.10546875 C-24.85189535 19.26941293 -24.85189535 19.26941293 -23 22 C-20.42267086 23.05167527 -20.42267086 23.05167527 -18 23 C-15.36042699 17.61087177 -13.63055938 13.02174803 -15.6796875 7.00390625 C-16.39528815 5.31031804 -17.19127462 3.65114765 -18 2 C-21.86196593 1.56768903 -21.86196593 1.56768903 -23.6875 3.4375 Z " fill="#000000" transform="translate(155,268)"/>
<path d="M0 0 C2.20576197 -0.00218874 4.41102562 -0.02035586 6.61669922 -0.03930664 C8.01383292 -0.0422402 9.410969 -0.04422525 10.80810547 -0.04516602 C12.08363281 -0.0492749 13.35916016 -0.05338379 14.67333984 -0.05761719 C17.71435547 0.18530273 17.71435547 0.18530273 19.71435547 2.18530273 C19.32557359 5.19836231 18.44978673 6.58215585 16.71435547 9.18530273 C17.00653652 15.05379029 18.47827596 19.82017285 20.77685547 25.18530273 C21.1993457 26.20430664 21.1993457 26.20430664 21.63037109 27.24389648 C22.31626858 28.89470061 23.01405376 30.54055743 23.71435547 32.18530273 C26.51278177 29.38687644 27.48428634 26.01333535 28.83935547 22.37280273 C29.11650391 21.6605957 29.39365234 20.94838867 29.67919922 20.21459961 C31.08800486 16.46356785 32.24844391 13.25490623 31.71435547 9.18530273 C31.19873047 8.52530273 30.68310547 7.86530273 30.15185547 7.18530273 C28.71435547 5.18530273 28.71435547 5.18530273 29.12451172 2.56030273 C29.31916016 1.77655273 29.51380859 0.99280273 29.71435547 0.18530273 C33.00594863 0.1273992 36.2974115 0.09174013 39.58935547 0.06030273 C40.52650391 0.04354492 41.46365234 0.02678711 42.42919922 0.00952148 C43.32509766 0.00307617 44.22099609 -0.00336914 45.14404297 -0.01000977 C45.97145996 -0.0204834 46.79887695 -0.03095703 47.65136719 -0.04174805 C49.71435547 0.18530273 49.71435547 0.18530273 51.71435547 2.18530273 C51.71435547 4.49780273 51.71435547 4.49780273 50.71435547 7.18530273 C49.3125 8.29905273 49.3125 8.29905273 47.88232422 9.43530273 C44.5979021 12.08720209 42.79219106 15.07789814 41.02685547 18.87280273 C40.54091919 19.87657959 40.54091919 19.87657959 40.04516602 20.90063477 C36.31012317 28.76690086 32.98298383 36.82516638 29.65893555 44.87158203 C26.93067563 51.45432836 24.00301606 57.86293021 20.71435547 64.18530273 C18.73435547 64.18530273 16.75435547 64.18530273 14.71435547 64.18530273 C8.4136077 52.44040432 3.29606459 40.26189862 -1.71606445 27.92724609 C-2.12380348 26.93417198 -2.12380348 26.93417198 -2.53977966 25.92103577 C-3.28648734 24.10212065 -4.02604913 22.28027668 -4.76513672 20.45825195 C-6.94392636 15.76832678 -9.40312478 11.50361345 -13.53564453 8.31030273 C-14.44314453 7.60905273 -15.35064453 6.90780273 -16.28564453 6.18530273 C-15.91064453 3.74780273 -15.91064453 3.74780273 -15.28564453 1.18530273 C-10.8799275 -1.01755578 -4.89985645 -0.00054674 0 0 Z " fill="#000000" transform="translate(66.28564453125,249.814697265625)"/>
<path d="M0 0 C1.92809955 1.67379385 2.7475695 3.02315409 3.62890625 5.4140625 C3.37890625 9.1015625 3.37890625 9.1015625 2.62890625 12.4140625 C-0.32903098 13.89303111 -2.07329599 13.8496207 -5.37109375 13.4140625 C-8.85680655 11.10280153 -11.68645072 8.2270761 -14.37109375 5.0390625 C-17.29564385 2.66286555 -19.73010232 3.13398624 -23.37109375 3.4140625 C-23.70109375 4.4040625 -24.03109375 5.3940625 -24.37109375 6.4140625 C-21.78421714 9.61815879 -19.085872 10.28564124 -15.18359375 11.3515625 C-0.04428585 15.80231671 -0.04428585 15.80231671 3.62890625 22.4140625 C4.88129491 27.03224569 4.87404883 30.54885338 3.56640625 35.1640625 C0.36485283 40.53441018 -3.82061798 43.91555908 -9.78125 45.90625 C-19.61990121 47.8353973 -30.51048522 47.43300859 -39.37109375 42.4140625 C-41.76811569 40.28848033 -43.16041901 39.00094213 -44.24609375 35.9765625 C-44.40137083 32.79338234 -44.09478066 31.11200724 -42.37109375 28.4140625 C-39.62109375 27.2890625 -39.62109375 27.2890625 -36.37109375 27.4140625 C-33.23532814 29.60909843 -30.97090643 31.71428104 -28.49609375 34.6015625 C-25.46822071 37.18416009 -22.31328988 38.05861859 -18.37109375 38.4140625 C-15.92929835 37.70069824 -15.92929835 37.70069824 -14.37109375 36.4140625 C-14.37109375 35.4240625 -14.37109375 34.4340625 -14.37109375 33.4140625 C-15.60859375 33.0221875 -16.84609375 32.6303125 -18.12109375 32.2265625 C-38.40598166 25.40084192 -38.40598166 25.40084192 -42.74609375 18.1015625 C-43.92724105 13.02262911 -43.95418888 9.0099018 -42.18359375 4.1640625 C-38.53036381 -1.37876914 -34.29125097 -3.35641039 -28.05078125 -5.05078125 C-18.05074891 -7.04787226 -8.59535063 -5.38294686 0 0 Z " fill="#010101" transform="translate(258.37109375,267.5859375)"/>
<path d="M0 0 C1.81115956 1.81115956 1.38199448 4.61278227 1.5625 7.0625 C1.68818359 8.71958984 1.68818359 8.71958984 1.81640625 10.41015625 C1.87699219 11.26480469 1.93757813 12.11945313 2 13 C5.465 14.485 5.465 14.485 9 16 C8.67 17.98 8.34 19.96 8 22 C6.02 22.66 4.04 23.32 2 24 C1.94165579 28.52077862 1.90628748 33.04145953 1.875 37.5625 C1.85824219 38.83931641 1.84148437 40.11613281 1.82421875 41.43164062 C1.70350736 50.42294355 1.70350736 50.42294355 4 59 C5.97343865 60.94321211 5.97343865 60.94321211 8 62 C7.68031467 65.51653861 7.37757864 67.53431968 5.125 70.3125 C1.59374583 73.11673125 -1.50294872 73.18458277 -5.875 73.25 C-6.90367187 73.27578125 -7.93234375 73.3015625 -8.9921875 73.328125 C-13.06112335 72.88424109 -15.51817771 71.15252845 -18.6875 68.6875 C-25.08314858 60.46452325 -23.05842243 46.64810272 -22.87304688 36.93554688 C-22.85661133 35.32196289 -22.85661133 35.32196289 -22.83984375 33.67578125 C-22.81458618 32.2203894 -22.81458618 32.2203894 -22.78881836 30.7355957 C-23.10418588 26.65040139 -24.09654358 23.90345642 -27 21 C-27.4375 18.5625 -27.4375 18.5625 -27 16 C-24.85370831 14.32320962 -22.67968452 13.2796996 -20.16796875 12.24609375 C-14.67309699 9.82921722 -11.46300602 6.54959498 -7.6640625 1.92578125 C-5.01916079 -1.13510265 -3.7156806 -1.19860665 0 0 Z " fill="#000000" transform="translate(181,173)"/>
<path d="M0 0 C3.04777273 1.52388637 3.70618755 3.95954074 5 7 C5.721875 6.21625 6.44375 5.4325 7.1875 4.625 C10.97936058 1.08593013 13.35094252 0.11778982 18.5 -0.25 C21.83820644 -0.01155668 24.05875058 0.44286795 27 2 C28.61227876 5.22455753 28.46900928 8.503749 28 12 C26.90583902 14.81901736 25.5462608 17.40449079 24 20 C18.35820896 19.37313433 18.35820896 19.37313433 16.5 17.4375 C14.9797887 15.69430406 14.9797887 15.69430406 12 15.625 C9.02520127 15.74248557 9.02520127 15.74248557 7.1875 17.375 C4.06928681 21.64202858 4.77734914 26.20846735 4.75 31.3125 C4.729375 32.26318359 4.70875 33.21386719 4.6875 34.19335938 C4.65846549 39.38690757 4.79346799 42.69335461 8 47 C7.75495152 49.20543633 7.57580336 50.42419664 6 52 C4.08541718 52.09971786 2.16717683 52.13080589 0.25 52.1328125 C-0.9153125 52.13410156 -2.080625 52.13539063 -3.28125 52.13671875 C-4.5084375 52.13285156 -5.735625 52.12898438 -7 52.125 C-8.84078125 52.13080078 -8.84078125 52.13080078 -10.71875 52.13671875 C-11.8840625 52.13542969 -13.049375 52.13414062 -14.25 52.1328125 C-15.32765625 52.13168457 -16.4053125 52.13055664 -17.515625 52.12939453 C-20 52 -20 52 -21 51 C-21.39065794 47.67940748 -21.00961873 46.01941372 -19.5078125 42.98828125 C-17.38998042 38.19423381 -17.56022957 33.47614242 -17.625 28.3125 C-17.61339844 27.37599609 -17.60179687 26.43949219 -17.58984375 25.47460938 C-17.59371094 24.57162109 -17.59757813 23.66863281 -17.6015625 22.73828125 C-17.60494629 21.92399658 -17.60833008 21.10971191 -17.61181641 20.27075195 C-18.08537899 17.50055973 -19.27524737 16.17590714 -21 14 C-21.1875 11.25 -21.1875 11.25 -21 9 C-20.030625 8.5875 -19.06125 8.175 -18.0625 7.75 C-16.7078249 7.16784838 -15.3537114 6.58438907 -14 6 C-13.22011719 5.66355469 -12.44023437 5.32710938 -11.63671875 4.98046875 C-10.84910156 4.63628906 -10.06148437 4.29210937 -9.25 3.9375 C-8.51265625 3.61652344 -7.7753125 3.29554688 -7.015625 2.96484375 C-0.82186235 0 -0.82186235 0 0 0 Z " fill="#000000" transform="translate(184,262)"/>
<path d="M0 0 C2.46240234 0.92504883 2.46240234 0.92504883 5 3 C5.76889706 6.04748986 5.64909942 9.07094878 5.6015625 12.19921875 C5.61357193 13.56274223 5.61357193 13.56274223 5.62582397 14.95381165 C5.64893564 17.86549137 5.63942754 20.77578217 5.625 23.6875 C5.62114154 26.58110717 5.62471432 29.47409157 5.64559937 32.36763 C5.6575994 34.16738742 5.65516763 35.96731932 5.63589478 37.76701355 C5.65948824 43.12750683 5.94899189 49.94899189 10 54 C10.04063832 55.66617115 10.042721 57.33388095 10 59 C7.0780231 60.46098845 4.50106525 60.11134901 1.2421875 60.09765625 C0.24761032 60.09553383 0.24761032 60.09553383 -0.76705933 60.09336853 C-2.88641863 60.08776754 -5.00567259 60.075215 -7.125 60.0625 C-8.56119639 60.05748512 -9.99739444 60.05292219 -11.43359375 60.04882812 C-14.95576345 60.03779782 -18.47787145 60.02053259 -22 60 C-23.11547852 57.68286133 -23.11547852 57.68286133 -24 55 C-23.0024449 53.420362 -22.002853 51.84196408 -20.99169922 50.27099609 C-18.7688484 45.18065679 -19.47595457 39.26486198 -19.5625 33.8125 C-19.55186523 31.90694336 -19.55186523 31.90694336 -19.54101562 29.96289062 C-19.4128384 22.37030253 -19.4128384 22.37030253 -23 16 C-23.1875 12.75 -23.1875 12.75 -23 10 C-21.92621094 9.61328125 -20.85242188 9.2265625 -19.74609375 8.828125 C-18.30977493 8.30241354 -16.87358378 7.77635317 -15.4375 7.25 C-14.73302734 6.99734375 -14.02855469 6.7446875 -13.30273438 6.484375 C-8.55305586 4.73334144 -4.33347808 2.61944799 0 0 Z " fill="#000000" transform="translate(142,186)"/>
<path d="M0 0 C2.31187681 3.17883061 3.01932767 5.07227192 2.9375 9 C1.14687878 14.72998791 -1.99715923 18.66701983 -6.9375 21.95703125 C-11.66668406 24.34849364 -16.74813879 25.52703135 -21.9375 24.3125 C-22.9584375 23.6628125 -22.9584375 23.6628125 -24 23 C-24.598125 22.62875 -25.19625 22.2575 -25.8125 21.875 C-27.79529413 18.74427242 -27.58450981 15.5272144 -27 12 C-24.12812723 6.01693173 -19.00608026 1.73978343 -12.94921875 -0.890625 C-8.12726268 -2.35125635 -4.53058312 -2.13203911 0 0 Z " fill="#000000" transform="translate(145,164)"/>
<path d="" fill="#FFFFFF" transform="translate(0,0)"/>
<path d="" fill="#FFFFFF" transform="translate(0,0)"/>
<path d="" fill="#FFFFFF" transform="translate(0,0)"/>
<path d="" fill="#FFFFFF" transform="translate(0,0)"/>
<path d="" fill="#FFFFFF" transform="translate(0,0)"/>
<path d="" fill="#FFFFFF" transform="translate(0,0)"/>
<path d="" fill="#FFFFFF" transform="translate(0,0)"/>
<path d="" fill="#FFFFFF" transform="translate(0,0)"/>
<path d="" fill="#FFFFFF" transform="translate(0,0)"/>
<path d="" fill="#FFFFFF" transform="translate(0,0)"/>
<path d="" fill="#FFFFFF" transform="translate(0,0)"/>
<path d="" fill="#FFFFFF" transform="translate(0,0)"/>
<path d="" fill="#FFFFFF" transform="translate(0,0)"/>
<path d="" fill="#FFFFFF" transform="translate(0,0)"/>
<path d="" fill="#FFFFFF" transform="translate(0,0)"/>
<path d="" fill="#FFFFFF" transform="translate(0,0)"/>
<path d="" fill="#FFFFFF" transform="translate(0,0)"/>
<path d="" fill="#FFFFFF" transform="translate(0,0)"/>
<path d="" fill="#FFFFFF" transform="translate(0,0)"/>
<path d="" fill="#FFFFFF" transform="translate(0,0)"/>
<path d="" fill="#FFFFFF" transform="translate(0,0)"/>
<path d="" fill="#FFFFFF" transform="translate(0,0)"/>
<path d="" fill="#FFFFFF" transform="translate(0,0)"/>
<path d="" fill="#FFFFFF" transform="translate(0,0)"/>
<path d="" fill="#FFFFFF" transform="translate(0,0)"/>
<path d="" fill="#FFFFFF" transform="translate(0,0)"/>
<path d="" fill="#FFFFFF" transform="translate(0,0)"/>
<path d="" fill="#FFFFFF" transform="translate(0,0)"/>
<path d="" fill="#FFFFFF" transform="translate(0,0)"/>
<path d="" fill="#FFFFFF" transform="translate(0,0)"/>
<path d="" fill="#FFFFFF" transform="translate(0,0)"/>
<path d="" fill="#FFFFFF" transform="translate(0,0)"/>
<path d="" fill="#FFFFFF" transform="translate(0,0)"/>
<path d="" fill="#FFFFFF" transform="translate(0,0)"/>
<path d="" fill="#FFFFFF" transform="translate(0,0)"/>
<path d="" fill="#FFFFFF" transform="translate(0,0)"/>
<path d="" fill="#FFFFFF" transform="translate(0,0)"/>
<path d="" fill="#FFFFFF" transform="translate(0,0)"/>
<path d="" fill="#FFFFFF" transform="translate(0,0)"/>
<path d="" fill="#FFFFFF" transform="translate(0,0)"/>
<path d="" fill="#FFFFFF" transform="translate(0,0)"/>
<path d="" fill="#FFFFFF" transform="translate(0,0)"/>
<path d="" fill="#FFFFFF" transform="translate(0,0)"/>
<path d="" fill="#FFFFFF" transform="translate(0,0)"/>
<path d="" fill="#FFFFFF" transform="translate(0,0)"/>
<path d="" fill="#FFFFFF" transform="translate(0,0)"/>
<path d="" fill="#FFFFFF" transform="translate(0,0)"/>
<path d="" fill="#FFFFFF" transform="translate(0,0)"/>
<path d="" fill="#FFFFFF" transform="translate(0,0)"/>
<path d="" fill="#FFFFFF" transform="translate(0,0)"/>
<path d="" fill="#FFFFFF" transform="translate(0,0)"/>
<path d="" fill="#FFFFFF" transform="translate(0,0)"/>
<path d="" fill="#000000" transform="translate(0,0)"/>
<path d="" fill="#FFFFFF" transform="translate(0,0)"/>
<path d="" fill="#FFFFFF" transform="translate(0,0)"/>
<path d="" fill="#FFFFFF" transform="translate(0,0)"/>
<path d="" fill="#FFFFFF" transform="translate(0,0)"/>
<path d="" fill="#FFFFFF" transform="translate(0,0)"/>
<path d="" fill="#FFFFFF" transform="translate(0,0)"/>
<path d="" fill="#FFFFFF" transform="translate(0,0)"/>
<path d="" fill="#FFFFFF" transform="translate(0,0)"/>
<path d="" fill="#FFFFFF" transform="translate(0,0)"/>
<path d="" fill="#FFFFFF" transform="translate(0,0)"/>
<path d="" fill="#FFFFFF" transform="translate(0,0)"/>
<path d="" fill="#FFFFFF" transform="translate(0,0)"/>
<path d="" fill="#FFFFFF" transform="translate(0,0)"/>
<path d="" fill="#FFFFFF" transform="translate(0,0)"/>
<path d="" fill="#FFFFFF" transform="translate(0,0)"/>
<path d="" fill="#FFFFFF" transform="translate(0,0)"/>
<path d="" fill="#FFFFFF" transform="translate(0,0)"/>
<path d="" fill="#FFFFFF" transform="translate(0,0)"/>
<path d="" fill="#FFFFFF" transform="translate(0,0)"/>
<path d="" fill="#FFFFFF" transform="translate(0,0)"/>
<path d="" fill="#FFFFFF" transform="translate(0,0)"/>
<path d="" fill="#FFFFFF" transform="translate(0,0)"/>
<path d="" fill="#FFFFFF" transform="translate(0,0)"/>
<path d="" fill="#FFFFFF" transform="translate(0,0)"/>
<path d="" fill="#FFFFFF" transform="translate(0,0)"/>
<path d="" fill="#FFFFFF" transform="translate(0,0)"/>
<path d="" fill="#FFFFFF" transform="translate(0,0)"/>
<path d="" fill="#FFFFFF" transform="translate(0,0)"/>
<path d="" fill="#FFFFFF" transform="translate(0,0)"/>
<path d="" fill="#FFFFFF" transform="translate(0,0)"/>
</svg>
